<?xml version="1.0" standalone="no"?>
<!DOCTYPE svg PUBLIC "-//W3C//DTD SVG 20010904//EN"
 "http://www.w3.org/TR/2001/REC-SVG-20010904/DTD/svg10.dtd">
<svg version="1.0" xmlns="http://www.w3.org/2000/svg"
 width="270.000000pt" height="270.000000pt" viewBox="0 0 270.000000 270.000000"
 preserveAspectRatio="xMidYMid meet">
<metadata>
Created by potrace 1.11, written by Peter Selinger 2001-2013
</metadata>
<g transform="translate(0.000000,270.000000) scale(0.100000,-0.100000)"
fill="#000000" stroke="none">
<path d="M1197 2383 c-20 -20 9 -143 34 -143 5 0 18 -9 30 -21 l21 -21 -52
-24 c-29 -13 -61 -24 -72 -24 -32 0 -80 -55 -76 -87 3 -24 7 -28 33 -26 37 3
85 53 85 88 0 20 7 26 39 36 55 16 105 4 151 -37 46 -42 66 -82 75 -154 7 -51
6 -54 -10 -40 -9 7 -24 30 -33 49 -28 59 -125 106 -147 71 -21 -35 55 -100
116 -100 35 0 39 -3 54 -44 16 -42 16 -45 -5 -94 -12 -27 -33 -60 -46 -73
l-24 -22 0 62 c0 70 -25 131 -65 157 -45 29 -72 1 -61 -61 7 -38 78 -121 94
-111 10 6 22 -15 22 -40 0 -8 -14 -45 -32 -82 -56 -119 -49 -258 17 -357 29
-43 24 -44 -24 -6 -20 15 -59 43 -88 60 -37 23 -55 42 -67 71 -22 54 -20 65
10 85 53 34 84 163 49 199 -40 39 -105 -48 -105 -140 0 -28 4 -54 9 -59 11
-12 19 -95 10 -95 -16 0 -119 115 -138 153 -25 52 -47 144 -60 252 l-10 80 3
-115 c3 -108 14 -157 51 -243 7 -17 4 -18 -31 -10 -35 7 -114 7 -259 0 -43 -2
-50 1 -53 18 -13 70 -142 125 -142 60 0 -23 58 -84 83 -86 7 -1 29 -3 50 -4
20 -1 40 -4 42 -7 3 -3 -10 -21 -29 -41 -19 -20 -40 -54 -46 -74 -22 -67 -38
-85 -70 -78 -37 8 -114 -25 -130 -56 -26 -48 44 -61 113 -21 15 9 27 19 27 23
0 3 10 19 22 34 l21 27 29 -58 c15 -33 28 -64 28 -71 0 -19 60 -63 86 -63 51
0 39 65 -18 100 -18 11 -41 18 -51 16 -14 -3 -22 5 -33 29 -19 46 -17 82 5
130 30 67 83 102 179 119 45 8 40 -5 -15 -39 -30 -20 -52 -44 -64 -70 -22 -48
-23 -56 -5 -80 13 -18 15 -18 40 -2 35 24 58 71 54 115 -3 34 0 39 32 54 65
33 123 16 204 -60 28 -26 101 -82 161 -124 61 -41 121 -87 134 -102 l24 -26
-54 30 c-185 100 -390 70 -487 -70 -15 -22 -33 -39 -40 -40 -22 0 -53 -62 -50
-100 4 -46 36 -53 67 -13 17 21 22 39 20 75 -3 58 21 95 88 138 66 42 141 55
225 40 70 -12 208 -72 208 -90 0 -10 -34 -15 -78 -11 -63 6 -157 -65 -150
-112 3 -19 9 -22 45 -21 51 1 107 40 128 90 12 30 18 34 51 34 30 0 45 -8 82
-45 41 -42 44 -48 39 -85 -3 -23 -12 -52 -21 -65 -9 -13 -72 -53 -147 -91
-211 -109 -279 -188 -279 -324 0 -72 19 -124 64 -177 l28 -33 129 0 c156 0
162 8 59 75 -85 56 -116 101 -98 140 6 14 39 46 72 71 199 147 233 186 270
316 20 71 54 112 109 131 l42 15 -46 1 c-25 1 -50 -4 -57 -11 -16 -16 -15 -9
3 43 25 70 49 89 105 82 57 -7 109 9 141 43 30 32 17 58 -32 62 -56 6 -106
-15 -140 -58 -17 -21 -36 -41 -43 -43 -14 -5 -20 150 -6 158 14 8 12 79 -2
109 -11 27 -40 42 -58 31 -5 -3 -10 -29 -10 -56 0 -40 5 -55 25 -75 21 -21 25
-34 25 -87 0 -71 -19 -158 -43 -202 -16 -30 -16 -30 -17 -5 -1 45 -36 104 -99
170 -99 103 -118 156 -84 227 12 26 21 33 35 30 52 -14 158 56 158 103 0 29
-32 42 -72 28 -56 -19 -76 -38 -102 -91 -14 -29 -32 -61 -41 -72 -15 -19 -16
-16 -12 53 3 55 12 87 35 135 60 122 198 227 296 227 44 0 46 -1 65 -45 31
-70 112 -110 119 -58 7 46 -56 103 -112 103 -14 0 -28 5 -31 10 -6 10 40 16
110 12 73 -4 85 -10 85 -42 0 -36 62 -105 104 -116 81 -20 78 85 -4 134 -17
11 -73 24 -133 31 -150 19 -277 -5 -370 -71 l-30 -22 9 30 c5 16 9 81 10 144
1 150 1 150 22 150 62 2 136 115 86 134 -22 9 -20 10 -64 -30 -27 -25 -41 -47
-46 -72 -12 -74 -11 -74 -63 -22 -27 26 -61 51 -78 54 -44 10 -68 39 -53 65
21 39 -22 141 -59 141 -10 0 -21 -3 -24 -7z m227 -1524 c-16 -17 -81 -62 -144
-99 -117 -70 -163 -106 -193 -150 -29 -42 -19 -7 12 42 37 58 69 82 211 158
63 34 119 66 125 71 24 23 15 6 -11 -22z m51 -16 c-31 -49 -56 -71 -161 -143
-150 -104 -191 -177 -142 -250 40 -59 42 -66 14 -40 -107 97 -68 181 152 328
50 34 104 78 119 97 34 42 42 46 18 8z"/>
<path d="M1341 2324 c-1 -53 0 -56 14 -38 14 18 14 17 5 -10 -8 -22 -7 -34 5
-52 21 -32 32 -30 50 9 11 23 13 25 9 7 -4 -14 -13 -32 -20 -41 -11 -12 -11
-18 -2 -27 15 -15 31 -16 22 0 -4 7 -3 8 4 4 6 -4 9 -13 6 -20 -3 -8 -1 -17 5
-21 15 -9 14 76 0 126 -7 20 -31 56 -54 79 l-42 42 -2 -58z m60 -65 c-5 -13
-10 -19 -10 -12 -1 15 10 45 15 40 3 -2 0 -15 -5 -28z"/>
<path d="M1013 2269 c-27 -9 71 -71 123 -77 30 -3 44 -1 44 7 0 8 -8 10 -21 6
-20 -7 -20 -6 -2 14 9 12 22 21 28 21 6 0 5 -3 -2 -8 -21 -13 8 -39 37 -32 24
6 23 7 -21 37 -57 39 -98 51 -110 32 -5 -8 -9 -9 -9 -3 0 12 -37 14 -67 3z
m122 -18 c3 -5 0 -13 -6 -17 -8 -5 -9 -3 -4 6 6 9 1 10 -16 5 -19 -5 -21 -4
-9 4 19 13 27 14 35 2z"/>
<path d="M1622 2073 c-37 -22 -85 -71 -88 -91 0 -4 -8 -23 -16 -42 -21 -49
-30 -90 -19 -90 5 0 19 9 32 21 17 14 19 19 7 15 -10 -3 -20 -1 -23 4 -3 4 7
7 22 5 54 -6 131 77 136 145 1 17 5 30 10 30 4 0 7 7 7 15 0 21 -17 17 -68
-12z m25 -28 c-6 -7 -14 -9 -16 -3 -1 5 -10 1 -18 -9 -13 -17 -14 -17 -4 2 5
11 19 21 30 22 17 1 18 -1 8 -12z m-26 -70 c1 6 1 19 0 30 l-1 20 9 -20 c5
-13 3 -28 -7 -42 -14 -22 -30 -34 -17 -13 3 6 0 10 -7 10 -7 0 -19 9 -26 21
-11 16 -11 24 -1 36 11 12 15 10 30 -19 10 -18 19 -28 20 -23z m-69 -27 c-7
-7 -12 -8 -12 -2 0 6 3 14 7 17 3 4 9 5 12 2 2 -3 -1 -11 -7 -17z m38 -12 c0
-2 -7 -7 -16 -10 -8 -3 -12 -2 -9 4 6 10 25 14 25 6z"/>
<path d="M1572 1998 c2 -6 10 -14 16 -16 7 -2 10 2 6 12 -7 18 -28 22 -22 4z"/>
<path d="M814 2036 c1 -33 8 -62 14 -64 6 -2 9 -9 6 -16 -3 -7 4 -23 16 -36
11 -13 20 -19 21 -14 0 5 4 0 9 -11 6 -15 9 -6 9 32 1 62 -8 87 -48 133 l-31
35 4 -59z m41 -27 c-4 -6 1 -16 10 -23 15 -11 16 -13 2 -13 -9 0 -19 7 -22 15
-5 13 1 32 11 32 3 0 2 -5 -1 -11z m19 -57 c3 -5 -1 -9 -9 -9 -8 0 -12 4 -9 9
3 4 7 8 9 8 2 0 6 -4 9 -8z"/>
<path d="M944 2035 c-27 -27 -33 -90 -12 -124 11 -18 12 -18 34 2 45 38 56
126 19 141 -10 3 -26 -4 -41 -19z"/>
<path d="M1782 2027 c-18 -12 -31 -26 -30 -32 2 -17 -13 -45 -25 -45 -5 0 -2
9 8 20 10 11 14 20 8 20 -9 0 -53 -54 -53 -65 0 -3 6 -3 12 2 7 4 25 6 41 4
53 -5 164 66 140 90 -7 7 -15 6 -24 -3 -28 -26 -53 -43 -45 -30 9 15 2 15 -27
2 -20 -9 -20 -9 -4 2 10 7 26 19 35 26 15 11 14 12 -8 7 -22 -5 -23 -4 -7 5
14 9 22 9 33 0 8 -8 14 -8 14 -2 0 11 18 11 36 -1 7 -4 17 -1 23 6 20 25 -91
19 -127 -6z m79 -40 c-10 -9 -11 -8 -5 6 3 10 9 15 12 12 3 -3 0 -11 -7 -18z"/>
<path d="M1928 1962 c-27 -9 -49 -21 -50 -27 -2 -5 23 -17 54 -24 55 -14 59
-14 105 9 l48 24 -40 18 c-48 21 -57 21 -117 0z m122 -12 c8 -5 11 -10 5 -10
-5 0 -17 5 -25 10 -8 5 -10 10 -5 10 6 0 17 -5 25 -10z"/>
<path d="M727 1898 c7 -58 30 -106 71 -150 32 -34 37 -35 39 -7 1 12 7 27 14
33 8 7 10 7 6 0 -14 -25 -15 -63 -1 -75 24 -20 29 -2 15 64 -19 91 -22 93 -60
44 -19 -23 -30 -33 -26 -22 4 11 7 30 6 43 0 12 4 22 10 22 6 0 9 -7 5 -15 -3
-8 -1 -15 3 -15 12 0 22 30 14 42 -4 7 -1 8 8 3 20 -11 -29 35 -65 63 -16 12
-33 22 -37 22 -5 0 -5 -24 -2 -52z m63 -23 c0 -8 -4 -15 -10 -15 -5 0 -7 7 -4
15 4 8 8 15 10 15 2 0 4 -7 4 -15z m-17 -45 c3 -11 1 -18 -4 -14 -5 3 -9 12
-9 20 0 20 7 17 13 -6z m59 -47 c-3 -16 -7 -22 -10 -15 -4 13 4 42 11 42 2 0
2 -12 -1 -27z"/>
<path d="M1060 1858 c-31 -47 -35 -61 -37 -123 -2 -77 15 -167 30 -162 6 2 25
33 44 69 39 77 51 149 32 193 -15 36 -16 40 -18 60 -2 26 -15 16 -51 -37z m34
6 c3 -8 2 -12 -4 -9 -6 3 -10 10 -10 16 0 14 7 11 14 -7z m16 -38 c-7 -7 -13
-7 -20 0 -6 6 -3 10 10 10 13 0 16 -4 10 -10z m-20 -96 c0 -5 -2 -10 -4 -10
-3 0 -8 5 -11 10 -3 6 -1 10 4 10 6 0 11 -4 11 -10z m10 -30 c6 8 10 11 10 6
0 -14 -31 -46 -44 -46 -6 0 -5 4 3 9 12 8 12 12 -2 26 -10 9 -17 21 -17 27 0
6 9 0 21 -13 17 -19 22 -21 29 -9z"/>
<path d="M1536 1762 c-32 -19 -126 -103 -126 -112 0 -10 114 1 127 12 7 5 16
7 21 4 11 -7 72 31 72 44 0 6 -6 8 -12 4 -7 -4 -10 -4 -6 1 4 4 3 14 -3 22
-10 11 -14 10 -27 -8 -11 -17 -16 -18 -23 -8 -5 8 -9 19 -9 24 0 6 5 3 10 -5
8 -13 11 -12 23 4 14 19 15 19 33 -2 21 -25 39 -29 30 -6 -4 9 -2 13 5 8 11
-6 29 12 29 29 0 15 -115 7 -144 -11z m40 -61 c10 8 14 8 14 0 0 -6 -3 -11 -7
-12 -5 0 -17 -2 -28 -3 -15 -2 -20 4 -21 22 l-2 24 15 -22 c12 -17 18 -19 29
-9z m-61 0 c3 -5 1 -12 -4 -15 -5 -3 -11 1 -15 9 -6 16 9 21 19 6z"/>
<path d="M677 1664 c27 -41 49 -60 89 -80 30 -14 61 -24 69 -20 8 3 15 2 15
-3 0 -5 15 -11 34 -13 33 -4 33 -3 19 19 -8 13 -20 20 -26 16 -6 -3 -7 -1 -3
5 4 6 -8 26 -26 44 -71 71 -77 74 -170 83 l-37 4 36 -55z m78 16 c35 -18 28
-19 -15 -2 -11 4 -10 -1 4 -16 11 -12 14 -22 8 -22 -7 0 -12 5 -12 10 0 6 -5
10 -11 10 -6 0 -8 -7 -5 -16 8 -22 -12 -7 -26 19 -10 20 -10 21 5 8 15 -11 17
-11 17 2 0 9 -8 18 -17 20 -13 3 -14 5 -3 6 8 0 33 -8 55 -19z m49 -46 c3 -8
2 -12 -4 -9 -6 3 -10 10 -10 16 0 14 7 11 14 -7z m-34 -24 c0 -5 -7 -7 -15 -4
-8 4 -15 8 -15 10 0 2 7 4 15 4 8 0 15 -4 15 -10z m73 -7 c-5 -12 -3 -14 7 -8
9 6 11 4 5 -4 -5 -9 -11 -9 -17 -3 -6 6 -7 15 -4 21 11 17 16 13 9 -6z"/>
<path d="M1768 1515 c-15 -12 -24 -26 -20 -29 3 -4 -1 -4 -11 0 -18 7 -22 -3
-8 -25 5 -8 14 -10 22 -6 8 5 6 -1 -4 -12 -9 -11 -14 -23 -10 -28 5 -4 -2 -3
-14 4 -14 7 -23 7 -26 1 -3 -6 -4 -5 -2 2 1 7 7 12 13 11 5 -1 9 4 8 12 -5 31
-14 23 -36 -29 -17 -43 -19 -59 -11 -75 9 -16 9 -19 -2 -16 -8 4 -13 -3 -14
-15 -1 -13 2 -18 10 -14 8 5 8 3 0 -7 -28 -29 -11 -29 27 1 32 25 39 37 35 54
-5 16 -4 18 4 7 8 -13 13 -11 30 10 12 13 19 32 17 42 -2 9 0 15 4 12 10 -6
24 71 18 103 -3 20 -3 20 -30 -3z m-68 -165 c0 -5 -5 -10 -11 -10 -5 0 -7 5
-4 10 3 6 8 10 11 10 2 0 4 -4 4 -10z"/>
<path d="M519 1465 c-41 -13 -62 -30 -109 -89 -13 -17 -11 -18 47 -14 70 6
114 31 108 64 -2 13 2 21 11 21 10 0 11 -4 3 -14 -22 -26 6 -12 29 15 l24 27
-22 3 c-11 2 -28 -2 -37 -10 -12 -9 -15 -10 -9 0 4 6 6 12 4 11 -2 0 -24 -7
-49 -14z m-34 -36 c-4 -6 2 -9 17 -7 12 2 24 -1 25 -7 1 -5 -7 -9 -18 -8 -11
2 -17 -1 -14 -7 3 -6 -1 -7 -9 -4 -16 6 -21 26 -9 37 10 11 15 8 8 -4z"/>
<path d="M1441 1355 c3 -63 8 -88 19 -95 8 -5 15 -13 15 -17 0 -4 16 -27 35
-51 29 -37 35 -41 41 -25 12 28 10 105 -1 98 -6 -3 -7 1 -4 9 4 10 1 16 -7 16
-10 0 -10 3 -2 11 6 6 9 19 5 28 -8 23 -83 111 -95 111 -5 0 -8 -36 -6 -85z
m33 23 c-9 -14 -23 2 -17 18 4 12 8 13 14 3 4 -7 5 -17 3 -21z m24 -33 c1 -13
-2 -26 -7 -30 -5 -3 -7 5 -3 17 5 20 3 21 -10 10 -13 -10 -17 -10 -21 2 -4 10
-1 13 7 10 8 -3 17 -1 21 5 9 16 10 14 13 -14z m8 -69 c-1 -29 -3 -33 -18 -25
-10 6 -18 15 -18 22 0 8 3 8 9 -1 6 -10 10 -7 15 12 9 35 13 33 12 -8z m19 -6
c3 -5 1 -10 -4 -10 -6 0 -11 5 -11 10 0 6 2 10 4 10 3 0 8 -4 11 -10z"/>
<path d="M901 1383 c24 -27 50 -47 56 -47 7 1 10 -2 8 -7 -7 -10 68 -31 103
-28 15 1 35 -2 45 -6 10 -4 20 -5 23 -2 9 8 -29 47 -39 40 -6 -3 -7 -2 -4 3 9
15 -4 29 -57 63 -43 26 -59 31 -114 31 l-65 0 44 -47z m40 0 c-12 -20 -14 -14
-5 12 4 9 9 14 11 11 3 -2 0 -13 -6 -23z m83 -23 c5 0 5 8 2 18 -4 10 2 7 14
-8 30 -36 42 -60 32 -60 -6 0 -12 9 -15 20 -3 11 -14 20 -24 20 -10 0 -25 6
-31 12 -10 10 -15 10 -21 0 -7 -11 -10 -10 -14 3 -5 11 -3 14 5 9 8 -5 9 -1 4
12 -6 16 -4 16 17 -4 13 -12 27 -22 31 -22z m47 3 c13 -16 12 -17 -3 -4 -10 7
-18 15 -18 17 0 8 8 3 21 -13z m-34 -45 c-3 -8 -6 -5 -6 6 -1 11 2 17 5 13 3
-3 4 -12 1 -19z"/>
<path d="M798 1275 c-44 -23 -60 -37 -40 -34 4 1 9 0 12 -1 14 -8 121 -6 126
1 3 5 9 7 13 5 4 -3 20 5 36 18 17 14 23 23 14 24 -8 0 -36 3 -64 6 -41 5 -59
1 -97 -19z m62 11 c0 -2 -7 -7 -16 -10 -8 -3 -12 -2 -9 4 6 10 25 14 25 6z
m74 -20 c-10 -8 -21 -12 -24 -10 -5 6 21 24 34 24 6 0 1 -6 -10 -14z"/>
<path d="M566 1254 c-4 -9 -1 -24 6 -33 11 -14 11 -14 -3 -4 -18 14 -33 6 -20
-11 5 -6 5 -20 0 -31 -9 -18 -9 -18 -5 3 7 35 -11 26 -24 -13 -7 -20 -9 -52
-5 -76 6 -33 9 -38 21 -28 8 7 12 19 9 28 -5 12 -3 13 6 4 9 -9 8 -17 -5 -34
-9 -13 -16 -28 -16 -34 0 -5 16 15 35 45 34 53 48 120 24 120 -5 0 -8 -4 -5
-8 3 -5 -2 -9 -11 -9 -13 0 -12 3 4 17 16 12 18 21 11 33 -5 10 -7 21 -3 26 3
5 1 12 -4 15 -5 3 -12 -1 -15 -10z"/>
<path d="M1050 1213 c-28 -10 -120 -67 -120 -74 0 -4 25 -13 56 -19 45 -10 66
-9 103 1 25 8 49 14 53 14 12 0 87 50 88 58 0 4 -10 7 -22 8 -13 0 -33 2 -45
5 -13 2 -23 -1 -23 -6 0 -6 5 -10 11 -10 5 0 7 -4 4 -10 -7 -12 -34 10 -32 25
2 11 -50 17 -73 8z m-12 -44 c3 -12 2 -12 -6 0 -6 8 -15 10 -22 6 -9 -5 -11
-4 -6 4 10 15 28 10 34 -10z m76 2 c4 -5 -3 -7 -14 -4 -23 6 -26 13 -6 13 8 0
17 -4 20 -9z m-101 -18 c-7 -2 -19 -2 -25 0 -7 3 -2 5 12 5 14 0 19 -2 13 -5z
m131 -1 c3 -5 -1 -9 -9 -9 -8 0 -12 4 -9 9 3 4 7 8 9 8 2 0 6 -4 9 -8z m-71
-19 c-7 -2 -19 -2 -25 0 -7 3 -2 5 12 5 14 0 19 -2 13 -5z"/>
<path d="M1640 1010 c0 -5 19 -22 42 -36 39 -25 66 -30 141 -26 l29 2 -30 25
c-37 31 -74 45 -118 45 -25 0 -33 -4 -28 -12 6 -10 4 -10 -7 0 -16 15 -29 16
-29 2z m150 -35 c-5 -7 -9 -14 -7 -16 1 -2 0 -3 -2 -1 -11 7 -7 29 5 29 9 0
11 -4 4 -12z"/>
<path d="M1606 973 c-21 -22 7 -107 50 -150 12 -13 14 -8 14 32 0 46 -25 100
-41 89 -5 -3 -6 1 -3 9 6 16 -9 31 -20 20z m54 -123 c0 -5 -2 -10 -4 -10 -3 0
-8 5 -11 10 -3 6 -1 10 4 10 6 0 11 -4 11 -10z"/>
</g>
</svg>
